<svg width="16" height="16" viewBox="0 0 16 16" fill="none" xmlns="http://www.w3.org/2000/svg">
<path d="M12.4452 9.90911C12.2479 10.1003 12.1573 10.3767 12.2022 10.6479L12.8793 14.395C12.9364 14.7126 12.8024 15.034 12.5366 15.2176C12.2761 15.408 11.9296 15.4308 11.6455 15.2785L8.27231 13.5192C8.15502 13.4567 8.02479 13.4232 7.89151 13.4194H7.68511C7.61352 13.4301 7.54345 13.4529 7.47948 13.488L4.10555 15.2557C3.93875 15.3394 3.74988 15.3691 3.5648 15.3394C3.11393 15.2541 2.8131 14.8246 2.88697 14.3714L3.5648 10.6243C3.60974 10.3509 3.51911 10.0729 3.32185 9.87865L0.57168 7.21299C0.341674 6.98983 0.261705 6.65472 0.366807 6.35236C0.468863 6.05076 0.729333 5.83065 1.04388 5.78115L4.82908 5.23202C5.11696 5.20232 5.36982 5.02715 5.49929 4.7682L7.16722 1.34854C7.20682 1.27238 7.25785 1.20231 7.31954 1.1429L7.38808 1.08959C7.42388 1.04998 7.46501 1.01723 7.5107 0.990577L7.59372 0.960113L7.72319 0.906799H8.04383C8.33019 0.936502 8.58229 1.10787 8.71404 1.36377L10.4041 4.7682C10.5259 5.01725 10.7628 5.19013 11.0362 5.23202L14.8214 5.78115C15.1413 5.82685 15.4086 6.04771 15.5145 6.35236C15.6142 6.65777 15.5282 6.99288 15.2936 7.21299L12.4452 9.90911Z" fill="#F6B76F"/>
</svg>
