<svg xmlns="http://www.w3.org/2000/svg" aria-hidden="true" style="position:absolute;width:0;height:0;overflow:hidden"><defs><symbol id="arrow-down" viewBox="0 0 46 32"><path fill="currentColor" d="M0 6.839C0 7.424.105 8 .315 8.53c.209.532.512.986.891 1.362l19.593 18.93c.527.54 1.258.879 2.069.891h.002a2.945 2.945 0 0 0 2.075-.891L44.534 9.224a4.199 4.199 0 0 0 1.165-2.639l.001-.013a4.457 4.457 0 0 0-.751-2.887l.01.016a3.154 3.154 0 0 0-2.196-1.397l-.017-.002a2.907 2.907 0 0 0-2.39.886l-.001.001-17.499 17.518L5.347 3.779a3.019 3.019 0 0 0-1.66-.875l-.018-.002a2.769 2.769 0 0 0-1.823.355l.013-.007A3.583 3.583 0 0 0 .501 4.693l-.009.02A4.46 4.46 0 0 0-.002 6.77l.001.073v-.004z" style="fill:var(--color1, currentColor)"/></symbol><symbol id="arrow-next" viewBox="0 0 96 32"><path fill="none" stroke="currentColor" stroke-linecap="square" stroke-width="2.462" d="M1.231 15.754h92.308m-.001 0S82.491 8.492 80.246 2.462m13.292 13.292s-9.767 6.828-13.292 13.292" style="stroke:var(--color2, currentColor)"/></symbol><symbol id="arrow-next-black" viewBox="0 0 21 15"><path stroke="currentColor" stroke-linecap="square" stroke-width="2.174" d="M1.304 7.435h17.21m0 0s-4.878-3.208-5.87-5.87m5.87 5.87s-4.312 3.015-5.87 5.87"/></symbol><symbol id="arrow-prev-black" viewBox="0 0 21 15"><path stroke="currentColor" stroke-linecap="square" stroke-width="2.174" d="M19.696 7.435H2.486m0 0s4.878-3.208 5.87-5.87m-5.87 5.87s4.312 3.015 5.87 5.87"/></symbol>
<symbol id="basket" viewBox="0 0 32 32"><path fill="#fff" d="M16.007 2.666c3.574 0 6.511 2.808 6.66 6.366h-.035l.001.029a.66.66 0 0 1-.06.277l.002-.004h.207c1.624 0 3.322 1.125 4.004 3.84l.074.32 1.026 8.26c.737 5.268-2.146 7.482-6.077 7.576l-.264.004H10.492c-3.995 0-7.075-1.456-6.397-7.223l.046-.358 1.036-8.26c.512-2.924 2.229-4.077 3.882-4.156l.184-.004h.104a.876.876 0 0 1 .001-.307l-.001.005c.151-3.558 3.087-6.366 6.661-6.366zm-3.878 11.106c-.65 0-1.178.543-1.178 1.213s.527 1.212 1.178 1.212 1.178-.543 1.178-1.212l-.009-.152a1.19 1.19 0 0 0-1.169-1.061zm7.719 0c-.65 0-1.178.543-1.178 1.213s.527 1.212 1.178 1.212 1.178-.543 1.178-1.212c0-.67-.527-1.213-1.178-1.213zm-3.894-9.369a4.637 4.637 0 0 0-4.645 4.63.876.876 0 0 1-.001.307l.001-.005h9.349a.831.831 0 0 1-.058-.301v-.001c0-2.557-2.08-4.63-4.646-4.63z" style="fill:var(--color1, #fff)"/></symbol><symbol id="facebook" viewBox="0 0 16 32"><path d="M13.04 5.272h2.896V.224A36.198 36.198 0 0 0 11.845 0h-.137.007C7.536 0 4.673 2.629 4.673 7.461v4.446H.06v5.643h4.613v14.202h5.654v-14.2h4.424l.702-5.643h-5.128V8.021c0-1.632.44-2.749 2.714-2.749z"/></symbol><symbol id="instagram" viewBox="0 0 32 32"><path d="M10 0h12c5.523 0 10 4.477 10 10v12c0 5.523-4.477 10-10 10H10C4.477 32 0 27.523 0 22V10C0 4.477 4.477 0 10 0zm12 29a7.009 7.009 0 0 0 7-7V10a7.009 7.009 0 0 0-7-7H10a7.009 7.009 0 0 0-7 7v12a7.009 7.009 0 0 0 7 7h12z"/><path d="M8 16a8 8 0 0 1 16 0 8 8 0 0 1-16 0zm3 0a5.008 5.008 0 0 0 5 5 5.008 5.008 0 0 0 5-5 5.007 5.007 0 0 0-5-5 5.007 5.007 0 0 0-5 5zM25.666 7.4a1.066 1.066 0 1 1-2.133 0 1.066 1.066 0 0 1 2.133 0z"/></symbol><symbol id="search" viewBox="0 0 32 32"><path fill="none" stroke="#fff" stroke-linecap="round" stroke-width="3.765" d="m29.647 29.647-6.332-6.344m3.509-8.479c0 6.627-5.373 12-12 12s-12-5.373-12-12v0c0-6.627 5.373-12 12-12s12 5.373 12 12v0z" style="stroke:var(--color1, #fff)"/></symbol><symbol id="star" viewBox="0 0 32 32"><path fill="#f6b76f" d="M24.89 19.82a1.67 1.67 0 0 0-.484 1.485l-.001-.01 1.354 7.494a1.646 1.646 0 0 1-.679 1.643l-.005.004a1.662 1.662 0 0 1-.987.321 1.67 1.67 0 0 1-.805-.206l.009.004-6.744-3.516a1.703 1.703 0 0 0-.758-.2h-.416a1.237 1.237 0 0 0-.418.141l.006-.003-6.746 3.536a1.755 1.755 0 0 1-1.093.165l.01.001a1.696 1.696 0 0 1-1.355-1.946l-.001.01 1.356-7.494a1.698 1.698 0 0 0-.486-1.49l-5.502-5.334a1.639 1.639 0 0 1-.407-1.731l-.004.011a1.717 1.717 0 0 1 1.344-1.143l.01-.001 7.57-1.098a1.7 1.7 0 0 0 1.336-.918l.004-.01 3.336-6.84c.083-.158.185-.293.306-.41l.136-.106c.07-.078.151-.144.241-.197l.005-.003.166-.06.26-.106h.64c.572.06 1.076.4 1.34.914l3.38 6.808c.244.49.705.84 1.254.927l.01.001 7.57 1.1c.64.09 1.176.532 1.388 1.14.2.612.026 1.28-.442 1.722l-5.698 5.392z" style="fill:var(--color3, #f6b76f)"/></symbol><symbol id="twitter" viewBox="0 0 40 32"><path d="M39.112 3.762a16.245 16.245 0 0 1-4.537 1.257l-.083.009a8.008 8.008 0 0 0 3.51-4.376l.016-.056a15.743 15.743 0 0 1-4.981 1.923l-.103.017a8.016 8.016 0 0 0-13.87 5.476v.008c0 .638.054 1.248.186 1.83A22.676 22.676 0 0 1 2.757 1.503l-.033-.041a7.977 7.977 0 0 0-1.1 4.051v.001a8.029 8.029 0 0 0 3.564 6.664 7.894 7.894 0 0 1-3.664-1.009l.04.021v.088a8.06 8.06 0 0 0 6.371 7.871l.053.009a8.013 8.013 0 0 1-2.1.264c-.516 0-1.034-.03-1.52-.138 1.04 3.176 3.988 5.51 7.492 5.586a16.007 16.007 0 0 1-9.925 3.42h-.016.001c-.66 0-1.29-.03-1.92-.11 3.454 2.256 7.684 3.598 12.227 3.598h.077-.004c14.756 0 22.82-12.222 22.82-22.816 0-.356-.01-.698-.028-1.038a16.141 16.141 0 0 0 3.984-4.105l.036-.057z"/></symbol></defs></svg>