<svg xmlns="http://www.w3.org/2000/svg" width="12" height="12" fill="none"><path fill="#F6973F" d="M9.452 7.772a.642.642 0 0 0-.186.566l.519 2.87a.63.63 0 0 1-.263.63.642.642 0 0 1-.682.046l-2.584-1.347a.66.66 0 0 0-.292-.077h-.158a.475.475 0 0 0-.157.053l-2.584 1.354c-.128.064-.273.087-.415.064a.648.648 0 0 1-.519-.741l.52-2.87a.653.653 0 0 0-.187-.571L.358 5.707a.63.63 0 0 1-.157-.66.655.655 0 0 1 .519-.437l2.899-.42a.649.649 0 0 0 .513-.356L5.41 1.215a.607.607 0 0 1 .116-.157l.053-.041a.392.392 0 0 1 .094-.076l.063-.023.1-.041h.245c.22.023.412.154.513.35L7.89 3.834c.093.191.274.324.484.356l2.899.42c.245.035.45.204.53.438.077.234.011.49-.168.659L9.452 7.772Z" opacity=".3"/></svg>