<svg width="16" height="16" fill="none" xmlns="http://www.w3.org/2000/svg"><path d="M12.445 9.91a.838.838 0 0 0-.243.738l.677 3.747a.823.823 0 0 1-.342.823.839.839 0 0 1-.892.06L8.273 13.52a.86.86 0 0 0-.38-.1h-.207a.618.618 0 0 0-.206.069l-3.373 1.768a.89.89 0 0 1-.541.083.847.847 0 0 1-.678-.968l.678-3.747a.852.852 0 0 0-.243-.745L.572 7.213a.822.822 0 0 1-.205-.86.855.855 0 0 1 .677-.572l3.785-.549a.847.847 0 0 0 .67-.464l1.668-3.42a.793.793 0 0 1 .153-.205l.068-.053a.511.511 0 0 1 .123-.1l.083-.03.13-.053h.32c.286.03.538.2.67.457l1.69 3.404a.846.846 0 0 0 .632.464l3.785.55c.32.045.588.266.694.57.1.306.013.64-.221.861l-2.849 2.696Z" fill="#F6B76F"/></svg>